<svg viewBox="0 0 40 26" xmlns="http://www.w3.org/2000/svg"><path d="m0 0h40v26h-40z" fill="#fff"/><path d="m4.85 6.98h8.5a1.94 1.94 0 0 1 1.42.87 1.68 1.68 0 0 1 .27.82v6.14a12.22 12.22 0 0 1 -1.27-.33c-.9-.26-1.77-.59-2.64-.9a9.13 9.13 0 0 0 .99-2.43h-2.34v-.82h2.87l-.01-.46h-2.86v-1.36h-1.2a.19.19 0 0 0 -.18.2v1.16h-2.9v.46h2.9v.82h-2.4v.46h4.65a8.18 8.18 0 0 1 -.65 1.55.05.05 0 0 1 -.08.02 13.27 13.27 0 0 0 -3.12-.69 3.08 3.08 0 0 0 -1.78.4 2.02 2.02 0 0 0 -.94 1.35 1.85 1.85 0 0 0 .44 1.58 2.53 2.53 0 0 0 1.62.78 4.15 4.15 0 0 0 2.36-.44 5.87 5.87 0 0 0 1.77-1.4c.05-.04.08-.1.14-.14 1.53.7 3.08 1.34 4.63 1.98a1.73 1.73 0 0 1 -.43 1.27 1.93 1.93 0 0 1 -1.21.65h-8.6a1.93 1.93 0 0 1 -1.3-.79 1.86 1.86 0 0 1 -.34-.85v-8.27a1.9 1.9 0 0 1 .45-1 1.97 1.97 0 0 1 1.23-.63" fill="#2ca4dd"/><path d="m5.22 13.47a3.26 3.26 0 0 1 1.94-.16 9.38 9.38 0 0 1 2.21.81 4.81 4.81 0 0 1 -2 1.55 2.87 2.87 0 0 1 -1.84.06 1.61 1.61 0 0 1 -.89-.62 1.04 1.04 0 0 1 -.14-.84 1.27 1.27 0 0 1 .72-.8" fill="#2ca4dd"/><g fill="#3f3a39"><path d="m19.56 8.01a.21.21 0 0 1 .2-.2c.36-.02.73 0 1.1-.01v.92h2.44v.45h-2.44v.73h2.1a4.97 4.97 0 0 1 -2 2.69 13 13 0 0 0 2.4 1.1c.02.17 0 .34.02.52a9.96 9.96 0 0 1 -1.58-.46 10.85 10.85 0 0 1 -1.54-.71 11.35 11.35 0 0 1 -3.16 1.17v-.54a10.21 10.21 0 0 0 2.46-1.06 6.17 6.17 0 0 1 -1.74-1.8h1.1a5.66 5.66 0 0 0 1.32 1.3 4.16 4.16 0 0 0 1.34-1.75h-4.06v-.46h2.04v-.73h-2.42v-.45h2.42v-.7m13.72-.24h1.28v.61h1.97a.32.32 0 0 1 .33.32v.78h-1.22v-.65h-3.42v.65h-1.23v-1.09h2.3v-.6m-8.49.04h1.16q-.38.88-.79 1.75h.39v4.52h-1.06v-3.4h-.96l1.25-2.87m3.91.06h1.1v1.1h.44v.44h-.44v4.16a.43.43 0 0 1 -.43.43h-1.4v-.46h.56a.18.18 0 0 0 .16-.2v-3.94h-2.69v-.45h2.7zm2.29 2h5.87v.44h-2.35v.88h2.35v.45h-2.36v1.86h1.2l-.3-.97h1a.2.2 0 0 1 .2.14c.14.4.25.83.39 1.24v.03h-6.01v-.45h2.35v-1.86h-2.35v-.45h2.35v-.86h-2.35v-.45"/><path d="m26.35 10.05h.92a.23.23 0 0 1 .22.16l.66 2h-1.08zm-7.34 5.69c-.11.36-.26.7-.37 1.07h.76c-.1-.32-.22-.63-.33-.95a.4.4 0 0 0 -.06-.12m-.2-.7h.4l1 2.63h-.52c-.05-.18-.12-.36-.18-.53h-1l-.19.53h-.51zm2.99 0h.5v2.27h1.17v.36h-1.67zm3.45 0h.5v2.63h-.5zm2.98.36v.9h.58a.4.4 0 0 0 .35-.25.46.46 0 0 0 -.3-.64c-.21-.02-.42 0-.63 0m-.5-.37h1.12a.88.88 0 0 1 .7.34.83.83 0 0 1 .1.72.79.79 0 0 1 -.52.51 4.3 4.3 0 0 1 -.9.06v1h-.5zm4.34.69c-.11.36-.27.72-.37 1.08h.75c-.12-.36-.23-.73-.38-1.08m-.2-.69h.39l1 2.63h-.52c-.05-.19-.11-.36-.17-.53h-1l-.19.53h-.51zm2.51 0h.53l.53 1.09h.04l.5-1.09h.54l-.82 1.55v1.08h-.5v-1.07c-.26-.53-.54-1.04-.82-1.56"/></g></svg>