<svg width="40" height="26" viewBox="0 0 40 26" fill="none" xmlns="http://www.w3.org/2000/svg">
<rect x="0.5" y="0.5" width="39" height="25" rx="2.5" fill="white" stroke="black"/>
<path d="M10.9198 8.74489C11.2623 8.30994 11.4947 7.72593 11.4334 7.12915C10.932 7.15446 10.3202 7.46498 9.96601 7.90027C9.64797 8.27303 9.36648 8.88149 9.43986 9.45325C10.0027 9.50282 10.5649 9.16763 10.9198 8.74489Z" fill="black"/>
<path d="M11.4269 9.5649C10.6096 9.51546 9.91469 10.0359 9.52438 10.0359C9.13385 10.0359 8.53615 9.5898 7.88969 9.60183C7.04828 9.61438 6.26755 10.0974 5.84058 10.8656C4.96235 12.4025 5.60881 14.6822 6.46284 15.9339C6.87757 16.5531 7.3774 17.235 8.03599 17.2105C8.65826 17.1857 8.90216 16.8014 9.65855 16.8014C10.4144 16.8014 10.6341 17.2105 11.2928 17.1981C11.9759 17.1857 12.4029 16.5785 12.8177 15.9587C13.2934 15.2528 13.4882 14.5712 13.5005 14.5337C13.4882 14.5213 12.1833 14.0131 12.1712 12.489C12.1588 11.2128 13.1957 10.6058 13.2445 10.5682C12.659 9.68895 11.7441 9.5898 11.4269 9.5649Z" fill="black"/>
<path d="M18.5435 7.83783C20.32 7.83783 21.557 9.08111 21.557 10.8912C21.557 12.7078 20.2945 13.9576 18.499 13.9576H16.5321V17.1333H15.1111V7.83783H18.5435V7.83783ZM16.5321 12.7465H18.1627C19.3999 12.7465 20.1041 12.0701 20.1041 10.8977C20.1041 9.72536 19.3999 9.05539 18.1691 9.05539H16.5321V12.7465V12.7465Z" fill="black"/>
<path d="M21.9283 15.2073C21.9283 14.0219 22.8229 13.2941 24.4092 13.2038L26.2363 13.0944V12.5726C26.2363 11.8189 25.735 11.368 24.8977 11.368C24.1045 11.368 23.6096 11.7544 23.4892 12.36H22.1949C22.271 11.136 23.2987 10.2342 24.9484 10.2342C26.5662 10.2342 27.6003 11.1038 27.6003 12.463V17.1334H26.287V16.0189H26.2554C25.8684 16.7726 25.0245 17.2493 24.149 17.2493C22.842 17.2493 21.9283 16.4247 21.9283 15.2073ZM26.2363 14.5954V14.0607L24.593 14.1637C23.7745 14.2217 23.3115 14.5889 23.3115 15.1687C23.3115 15.7612 23.7936 16.1478 24.5296 16.1478C25.4876 16.1478 26.2363 15.4778 26.2363 14.5954Z" fill="black"/>
<path d="M28.8402 19.6264V18.499C28.9415 18.5247 29.1698 18.5247 29.2842 18.5247C29.9186 18.5247 30.2612 18.2542 30.4705 17.5585C30.4705 17.5456 30.5911 17.1463 30.5911 17.1398L28.1803 10.3566H29.6647L31.3526 15.8708H31.3778L33.0656 10.3566H34.5121L32.0122 17.4876C31.4414 19.1303 30.7816 19.6585 29.3985 19.6585C29.2842 19.6585 28.9415 19.6456 28.8402 19.6264Z" fill="black"/>
</svg>
