<svg version="1.2" baseProfile="tiny-ps" xmlns="http://www.w3.org/2000/svg" viewBox="0 0 754 400" width="754" height="400">
	<title>paywithgoogle-svg</title>
	<style>
		tspan { white-space:pre }
		.shp0 { fill: #ffffff } 
		.shp1 { fill: #3c4043 } 
		.shp2 { fill: #4285f4 } 
		.shp3 { fill: #34a853 } 
		.shp4 { fill: #fabb05 } 
		.shp5 { fill: #e94235 } 
	</style>
	<path id="Base_1_" class="shp0" d="M553.7 0L201.7 0C91.7 0 1.7 90 1.7 200L1.7 200C1.7 310 91.7 400 201.7 400L553.7 400C663.7 400 753.7 310 753.7 200L753.7 200C753.7 90 663.7 0 553.7 0Z" />
	<path id="Outline" fill-rule="evenodd" class="shp1" d="M553.7 0C663.7 0 753.7 90 753.7 200C753.7 310 663.7 400 553.7 400L201.7 400C91.7 400 1.7 310 1.7 200C1.7 90 91.7 0 201.7 0L553.7 0ZM201.7 16.2C177 16.2 153 21.1 130.4 30.7C108.5 40 88.8 53.3 71.9 70.2C55 87.2 41.7 106.8 32.4 128.7C22.8 151.3 17.9 175.3 17.9 200C17.9 224.7 22.8 248.7 32.4 271.3C41.7 293.2 55 312.9 71.9 329.8C88.9 346.7 108.5 360 130.4 369.3C153 378.9 177 383.8 201.7 383.8L553.7 383.8C578.4 383.8 602.4 378.9 625 369.3C646.9 360 666.6 346.7 683.5 329.8C700.4 312.8 713.7 293.2 723 271.3C732.6 248.7 737.5 224.7 737.5 200C737.5 175.3 732.6 151.3 723 128.7C713.7 106.8 700.4 87.1 683.5 70.2C666.5 53.3 646.9 40 625 30.7C602.4 21.1 578.4 16.2 553.7 16.2L201.7 16.2Z" />
	<g id="G_Pay_Lockup_1_">
		<g id="Pay_Typeface_3_">
			<path id="Letter_p_3_" fill-rule="evenodd" class="shp1" d="M360.3 274.7L341.1 274.7L341.1 125.3L392 125.3C404.9 125.3 415.9 129.6 424.9 138.2C434.1 146.8 438.7 157.3 438.7 169.7C438.7 182.4 434.1 192.9 424.9 201.4C416 209.9 405 214.1 392 214.1L360.3 214.1L360.3 274.7ZM360.3 195.8L392.4 195.8C400 195.8 406.4 193.2 411.4 188.1C416.5 183 419.1 176.8 419.1 169.8C419.1 162.9 416.5 156.8 411.4 151.7C406.4 146.4 400.1 143.8 392.4 143.8L360.3 143.8L360.3 195.8Z" />
			<path id="Letter_a_3_" fill-rule="evenodd" class="shp1" d="M488.9 169.1C503.1 169.1 514.3 172.9 522.5 180.5C530.7 188.1 534.8 198.5 534.8 211.7L534.8 274.7L516.5 274.7L516.5 260.5L515.7 260.5C507.8 272.2 497.2 278 484 278C472.7 278 463.3 274.7 455.7 268C448.1 261.3 444.3 253 444.3 243C444.3 232.4 448.3 224 456.3 217.8C464.3 211.5 475 208.4 488.3 208.4C499.7 208.4 509.1 210.5 516.4 214.7L516.4 210.3C516.4 203.6 513.8 198 508.5 193.3C503.2 188.6 497 186.3 489.9 186.3C479.2 186.3 470.7 190.8 464.5 199.9L447.6 189.3C456.9 175.8 470.7 169.1 488.9 169.1ZM464.1 243.3C464.1 248.3 466.2 252.5 470.5 255.8C474.7 259.1 479.7 260.8 485.4 260.8C493.5 260.8 500.7 257.8 507 251.8C513.3 245.8 516.5 238.8 516.5 230.7C510.5 226 502.2 223.6 491.5 223.6C483.7 223.6 477.2 225.5 472 229.2C466.7 233.1 464.1 237.8 464.1 243.3Z" />
			<path id="Letter_y_3_" class="shp1" d="M639.2 172.4L575.2 319.6L555.4 319.6L579.2 268.1L537 172.4L557.9 172.4L588.3 245.8L588.7 245.8L618.3 172.4L639.2 172.4Z" />
		</g>
		<g id="G_Mark_1_">
			<path id="Blue_500" class="shp2" d="M283.93 202C283.93 195.74 283.37 189.75 282.33 183.99L201.85 183.99L201.85 216.99L248.2 217C246.32 227.98 240.27 237.34 231 243.58L231 264.99L258.59 264.99C274.7 250.08 283.93 228.04 283.93 202Z" />
			<path id="Green_500_1_" class="shp3" d="M231.01 243.58C223.33 248.76 213.44 251.79 201.87 251.79C179.52 251.79 160.56 236.73 153.77 216.43L125.31 216.43L125.31 238.51C139.41 266.49 168.39 285.69 201.87 285.69C225.01 285.69 244.45 278.08 258.6 264.98L231.01 243.58Z" />
			<path id="Yellow_500_1_" class="shp4" d="M151.09 200.05C151.09 194.35 152.04 188.84 153.77 183.66L153.77 161.58L125.31 161.58C119.48 173.15 116.2 186.21 116.2 200.05C116.2 213.89 119.49 226.95 125.31 238.52L153.77 216.44C152.04 211.26 151.09 205.75 151.09 200.05Z" />
			<path id="Red_500" class="shp5" d="M201.87 148.3C214.5 148.3 225.81 152.65 234.74 161.15L259.19 136.72C244.34 122.89 224.98 114.4 201.87 114.4C168.4 114.4 139.41 133.6 125.31 161.58L153.77 183.66C160.56 163.36 179.52 148.3 201.87 148.3Z" />
		</g>
	</g>
</svg>