<svg fill="none" height="26" width="40" xmlns="http://www.w3.org/2000/svg"><rect fill="#fff" height="25" rx="2.5" stroke="#3c4043" width="39" x=".5" y=".5"/><path d="m19.26 13.6v3.7h-1.14v-9.13h3.02c.73-.02 1.44.27 1.95.8a2.7 2.7 0 0 1 .13 3.73l-.13.13a2.7 2.7 0 0 1 -1.95.78h-1.88zm0-4.32v3.2h1.9c.43.01.84-.16 1.13-.48.6-.63.59-1.65-.03-2.27-.3-.29-.68-.45-1.1-.45zm7.28 1.56c.84 0 1.5.24 2 .7.49.46.73 1.1.73 1.9v3.87h-1.1v-.87h-.04a2.16 2.16 0 0 1 -1.89 1.07 2.4 2.4 0 0 1 -1.67-.61 1.96 1.96 0 0 1 -.68-1.53c0-.65.25-1.16.72-1.55a2.93 2.93 0 0 1 1.9-.58c.68 0 1.24.13 1.67.38v-.27c0-.4-.17-.78-.46-1.04a1.72 1.72 0 0 0 -2.6.4l-1.01-.65a2.73 2.73 0 0 1 2.43-1.22zm-1.47 4.55c0 .3.14.59.37.76.26.2.57.32.89.31.48 0 .94-.2 1.28-.55.38-.36.57-.8.57-1.29a2.24 2.24 0 0 0 -1.49-.43c-.46 0-.85.12-1.16.34-.3.23-.46.51-.46.86z" fill="#3c4043"/><g clip-rule="evenodd" fill-rule="evenodd"><path d="m35.52 11.05-3.8 9h-1.18l1.42-3.15-2.5-5.85h1.24l1.8 4.5h.02l1.77-4.5z" fill="#3c4043"/><path d="m14.65 12.8c0-.36-.03-.72-.08-1.07h-4.81v2.02h2.75a2.44 2.44 0 0 1 -1.02 1.6v1.31h1.65a5.2 5.2 0 0 0 1.51-3.86z" fill="#4285f4"/><path d="m9.76 17.93a4.8 4.8 0 0 0 3.38-1.27l-1.65-1.3a3.06 3.06 0 0 1 -4.6-1.66h-1.67v1.34a5.08 5.08 0 0 0 4.55 2.9z" fill="#34a853"/><path d="m6.9 13.69a3.26 3.26 0 0 1 0-2.02v-1.34h-1.7a5.35 5.35 0 0 0 0 4.7z" fill="#fbbc04"/><path d="m9.76 9.5a2.7 2.7 0 0 1 1.95.8l1.46-1.5a4.84 4.84 0 0 0 -3.41-1.37 5.08 5.08 0 0 0 -4.55 2.9l1.69 1.35a3.06 3.06 0 0 1 2.86-2.17z" fill="#ea4335"/></g></svg>